<mxfile host="Electron" modified="2024-04-23T12:02:00.702Z" agent="Mozilla/5.0 (Windows NT 10.0; Win64; x64) AppleWebKit/537.36 (KHTML, like Gecko) draw.io/22.0.3 Chrome/114.0.5735.289 Electron/25.8.4 Safari/537.36" etag="HVpcZd363gHw_bBL99tD" version="22.0.3" type="device">
  <diagram name="Page-1" id="HGOwNzMlGILwFBZxAp44">
    <mxGraphModel dx="1036" dy="654" grid="1" gridSize="10" guides="1" tooltips="1" connect="1" arrows="1" fold="1" page="1" pageScale="1" pageWidth="827" pageHeight="1169" math="0" shadow="0">
      <root>
        <mxCell id="0" />
        <mxCell id="1" parent="0" />
        <mxCell id="1nBSl5WPVWvX6sVyPhw5-2" value="" style="rounded=0;whiteSpace=wrap;html=1;fillColor=#f5f5f5;fontColor=#333333;strokeColor=#666666;" vertex="1" parent="1">
          <mxGeometry x="40" y="50" width="50" height="250" as="geometry" />
        </mxCell>
        <mxCell id="1nBSl5WPVWvX6sVyPhw5-3" value="" style="rounded=0;whiteSpace=wrap;html=1;fillColor=#f5f5f5;fontColor=#333333;strokeColor=#666666;" vertex="1" parent="1">
          <mxGeometry x="720" y="350" width="50" height="250" as="geometry" />
        </mxCell>
        <mxCell id="1nBSl5WPVWvX6sVyPhw5-4" value="" style="whiteSpace=wrap;html=1;aspect=fixed;fillColor=#f5f5f5;fontColor=#333333;strokeColor=#666666;" vertex="1" parent="1">
          <mxGeometry x="334" y="90" width="30" height="30" as="geometry" />
        </mxCell>
        <mxCell id="1nBSl5WPVWvX6sVyPhw5-5" value="" style="ellipse;whiteSpace=wrap;html=1;aspect=fixed;fillColor=#f5f5f5;fontColor=#333333;strokeColor=#666666;" vertex="1" parent="1">
          <mxGeometry x="370" y="350" width="30" height="30" as="geometry" />
        </mxCell>
        <mxCell id="1nBSl5WPVWvX6sVyPhw5-8" value="" style="whiteSpace=wrap;html=1;aspect=fixed;fillColor=#f5f5f5;fontColor=#333333;strokeColor=#666666;" vertex="1" parent="1">
          <mxGeometry x="500" y="220" width="30" height="30" as="geometry" />
        </mxCell>
        <mxCell id="1nBSl5WPVWvX6sVyPhw5-9" value="" style="whiteSpace=wrap;html=1;aspect=fixed;fillColor=#f5f5f5;fontColor=#333333;strokeColor=#666666;" vertex="1" parent="1">
          <mxGeometry x="320" y="480" width="30" height="30" as="geometry" />
        </mxCell>
        <mxCell id="1nBSl5WPVWvX6sVyPhw5-10" value="&lt;font color=&quot;#000000&quot;&gt;spiller1&amp;nbsp;&lt;/font&gt;" style="text;html=1;align=center;verticalAlign=middle;whiteSpace=wrap;rounded=0;" vertex="1" parent="1">
          <mxGeometry x="35" y="110" width="60" height="30" as="geometry" />
        </mxCell>
        <mxCell id="1nBSl5WPVWvX6sVyPhw5-12" value="spiller2" style="text;html=1;strokeColor=none;fillColor=none;align=center;verticalAlign=middle;whiteSpace=wrap;rounded=0;fontColor=#000000;" vertex="1" parent="1">
          <mxGeometry x="715" y="420" width="60" height="30" as="geometry" />
        </mxCell>
        <mxCell id="1nBSl5WPVWvX6sVyPhw5-13" value="hindring" style="text;html=1;strokeColor=none;fillColor=none;align=center;verticalAlign=middle;whiteSpace=wrap;rounded=0;" vertex="1" parent="1">
          <mxGeometry x="485" y="180" width="60" height="30" as="geometry" />
        </mxCell>
      </root>
    </mxGraphModel>
  </diagram>
</mxfile>
